<?xml version="1.0" encoding="utf-8"?>
<!-- Generator: Adobe Illustrator 16.0.0, SVG Export Plug-In . SVG Version: 6.00 Build 0)  -->
<!DOCTYPE svg PUBLIC "-//W3C//DTD SVG 1.1//EN" "http://www.w3.org/Graphics/SVG/1.1/DTD/svg11.dtd">
<svg version="1.1" id="Layer_1" xmlns="http://www.w3.org/2000/svg" xmlns:xlink="http://www.w3.org/1999/xlink" x="0px" y="0px"
	 width="80.652px" height="106.786px" viewBox="0 0 80.652 106.786" enable-background="new 0 0 80.652 106.786"
	 xml:space="preserve">
<g>
	<g>
		<path fill-rule="evenodd" clip-rule="evenodd" fill="#FEFEFE" d="M47.583,31.848c0.703,0.939,1.727,1.236,3.135,0.379
			c2.818-1.713,5.766-3.222,8.526-5.018c1.237-0.807,2.243-1.543,3.556-0.466c3.357-2.681,6.219-3.028,8.708-1.116
			c2.362,1.813,2.884,4.563,1.488,8.023c0.122,0.158,0.239,0.372,0.411,0.523c6.971,6.187,8.339,13.981,6.505,22.689
			c-1.133,5.37-3.222,10.293-6.79,14.543c-0.508,0.607-0.775,1.48-0.974,2.274c-2.204,8.797-4.41,17.593-6.511,26.415
			c-0.352,1.469-1.066,2.283-2.383,2.858c-4.406,1.919-9.051,2.825-13.786,3.294c-9.512,0.936-18.979,0.8-28.294-1.615
			c-6.577-1.703-6.606-1.777-8.224-8.246c-1.85-7.398-3.636-14.813-5.541-22.197c-0.299-1.156-0.927-2.324-1.689-3.249
			C1.687,66.063-0.734,60.662,0.2,54.199c0.492-3.409,2.22-6.3,4.279-9.024c0.4-0.533,0.56-1.521,0.378-2.17
			c-0.803-2.846,0.057-5.302,2.523-7.116c0.494-0.364,0.941-1.186,0.926-1.784c-0.153-5.629,1.502-10.525,5.52-14.57
			c0.331-0.332,0.502-1.029,0.438-1.517c-0.438-3.281,0.657-5.718,3.231-6.962c2.666-1.289,5.246-0.606,7.56,1.921
			c0.292,0.319,0.936,0.653,1.277,0.545c3.494-1.111,6.985-2.247,9.776-4.811c1.95-1.792,3.111-3.916,3.146-6.628
			c0.027-1.923,0.94-2.528,2.66-1.757c4.847,2.179,9.464,4.715,13.29,8.504c3.902,3.863,5.193,8.673,5.05,13.97
			c-0.019,0.648-0.523,1.525-1.073,1.875C55.354,27.128,51.458,29.47,47.583,31.848z M11.039,75.614
			c1.747,7.076,3.629,13.723,4.952,20.479c0.637,3.25,2.272,4.574,5.21,5.359c7.826,2.097,15.78,2.412,23.792,2.035
			c5.296-0.25,10.517-1.008,15.559-2.783c1.304-0.459,2.038-1.119,2.37-2.555c1.254-5.439,2.669-10.844,4.006-16.265
			c0.49-1.987,0.936-3.984,1.465-6.248c-4.133,2.086-8.023,2.765-12.088,0.876c-0.347-0.162-1.013,0.094-1.408,0.348
			c-4.583,2.942-9.292,3.233-14.209,0.876c-0.524-0.25-1.377-0.237-1.904,0.016c-4.922,2.359-9.631,2.045-14.213-0.892
			c-0.393-0.252-1.058-0.483-1.414-0.322C19.086,78.388,15.193,77.717,11.039,75.614z M5.041,63.431
			c1.068,3.574,3.326,6.172,6.021,8.295c3.588,2.825,7.541,4.005,11.816,1.287c1.01-0.641,1.744-0.279,2.553,0.445
			c3.721,3.332,8.796,3.645,12.94,0.771c0.993-0.688,1.73-0.722,2.743-0.013c4.138,2.906,9.194,2.598,12.931-0.758
			c0.885-0.793,1.658-1.054,2.713-0.35c2.689,1.801,5.66,1.948,8.396,0.49c2.113-1.125,4.124-2.702,5.723-4.485
			c3.504-3.906,5.232-8.699,6.148-14.027c-3.606,2.486-5.086,2.219-7.541-1.17c-1.206-1.659-2.229-1.617-3.213,0.202
			c-0.365,0.675-0.543,1.456-0.786,2.194c-0.548,1.648-0.925,3.377-1.658,4.936c-2.073,4.396-6.296,5.602-10.339,2.945
			c-1.749-1.15-3.279-2.628-4.947-3.906c-4.345-3.322-8.964-2.478-11.8,2.185c-0.902,1.485-1.53,3.144-2.481,4.594
			c-2.638,4.024-7.649,3.966-10.284-0.052c-2.985-4.552-3.017-4.607-7.748-1.945c-2.598,1.459-5.106,1.559-7.711,0.155
			C7.367,64.609,6.2,64.028,5.041,63.431z M16.764,40.659c6.728-1.214,13.427-2.441,20.138-3.616
			c1.545-0.271,2.214-1.093,2.167-2.356c-7.649,1.299-15.278,2.593-22.963,3.897C16.252,39.046,16.427,39.602,16.764,40.659z
			 M65.766,44.394c1.948,0.014,3.433-1.424,3.454-3.341c0.018-1.883-1.505-3.457-3.371-3.486c-1.814-0.029-3.453,1.577-3.475,3.41
			C62.35,42.868,63.849,44.378,65.766,44.394z M27.053,21.421c-1.876-0.128-3.519,1.282-3.672,3.153
			c-0.15,1.83,1.313,3.494,3.199,3.631c1.893,0.137,3.519-1.274,3.636-3.156C30.335,23.114,28.972,21.551,27.053,21.421z
			 M48.033,37.129c-0.045-1.949-1.556-3.377-3.512-3.318c-1.846,0.057-3.285,1.541-3.283,3.389c0.002,1.893,1.57,3.47,3.439,3.458
			C46.538,40.645,48.077,39.026,48.033,37.129z M10.511,44.394c1.957,0.027,3.433-1.386,3.464-3.313
			c0.029-1.903-1.464-3.482-3.333-3.521c-1.795-0.035-3.457,1.566-3.512,3.391C7.074,42.8,8.609,44.368,10.511,44.394z
			 M28.865,50.694c-0.007-1.863-1.573-3.442-3.411-3.436c-1.873,0.005-3.396,1.544-3.396,3.438
			c-0.001,1.931,1.458,3.393,3.394,3.399C27.34,54.099,28.871,52.577,28.865,50.694z M47.562,15.411
			c-0.023-1.963-1.515-3.42-3.457-3.375c-1.799,0.043-3.322,1.567-3.36,3.366c-0.042,1.862,1.541,3.452,3.442,3.46
			C46.128,18.868,47.582,17.381,47.562,15.411z M65.347,28.092c1.941,1.32,3.694,2.51,5.519,3.75
			c0.774-1.859,0.34-3.248-1.122-4.238C68.301,26.628,66.853,26.715,65.347,28.092z M16.871,17.187
			c2.101-0.921,4.027-1.767,6.027-2.645c-1.213-1.519-2.651-1.9-4.234-1.154C17.161,14.094,16.49,15.368,16.871,17.187z"/>
		<path fill-rule="evenodd" clip-rule="evenodd" fill="#FEFEFE" d="M55.865,81.789c-0.736,5.628-1.352,10.694-2.119,15.737
			c-0.089,0.578-1.003,1.031-1.536,1.541c-0.338-0.619-1.021-1.279-0.956-1.854c0.584-5.069,1.262-10.127,2.026-15.171
			c0.091-0.578,0.878-1.049,1.341-1.568C55.117,80.999,55.616,81.524,55.865,81.789z"/>
		<path fill-rule="evenodd" clip-rule="evenodd" fill="#FEFEFE" d="M23.573,81.83c0.233-0.265,0.711-0.81,1.188-1.353
			c0.486,0.563,1.311,1.074,1.404,1.694c0.751,4.985,1.408,9.987,1.961,14.999c0.065,0.594-0.672,1.28-1.037,1.922
			c-0.49-0.504-1.334-0.957-1.418-1.521C24.92,92.526,24.304,87.459,23.573,81.83z"/>
		<path fill-rule="evenodd" clip-rule="evenodd" fill="#FEFEFE" d="M38.478,90.554c-0.001-2.464,0.016-4.925-0.009-7.386
			c-0.009-0.936,0.138-1.767,1.268-1.77c1.128-0.002,1.279,0.822,1.276,1.761C40.995,88.204,41,93.247,41.007,98.292
			c0.003,0.948-0.236,1.855-1.333,1.615c-0.491-0.106-1.113-1.031-1.143-1.609C38.41,95.72,38.479,93.135,38.478,90.554z"/>
	</g>
</g>
</svg>
