<?xml version="1.0" encoding="utf-8"?>
<!-- Generator: Adobe Illustrator 16.0.0, SVG Export Plug-In . SVG Version: 6.00 Build 0)  -->
<!DOCTYPE svg PUBLIC "-//W3C//DTD SVG 1.1//EN" "http://www.w3.org/Graphics/SVG/1.1/DTD/svg11.dtd">
<svg version="1.1" id="Layer_1" xmlns="http://www.w3.org/2000/svg" xmlns:xlink="http://www.w3.org/1999/xlink" x="0px" y="0px"
	 width="529.092px" height="311.227px" viewBox="0 0 529.092 311.227" enable-background="new 0 0 529.092 311.227"
	 xml:space="preserve">
<g>
	<g>
		<path fill="#14A697" d="M37.984,161.239c-2.844,0-4.943-0.593-6.297-1.777c-1.354-1.185-2.031-3.08-2.031-5.688V89.282
			c-1.084,0.102-2.43,0.297-4.037,0.584c-1.608,0.288-3.293,0.703-5.053,1.244c-1.761,0.542-3.521,1.193-5.281,1.955
			c-1.761,0.762-3.335,1.643-4.723,2.641c-1.389,0.999-2.522,2.125-3.402,3.377c-0.881,1.253-1.32,2.641-1.32,4.164
			c0,1.084,0.144,1.947,0.432,2.59c0.287,0.644,0.617,1.126,0.99,1.447c0.372,0.322,0.753,0.525,1.143,0.609
			c0.389,0.085,0.668,0.127,0.838,0.127c0.846,0,1.54-0.144,2.082-0.432c0.541-0.287,1.032-0.592,1.473-0.914
			c0.439-0.321,0.854-0.626,1.244-0.914c0.389-0.287,0.838-0.432,1.346-0.432c0.406,0,0.838,0.094,1.295,0.279
			c0.457,0.187,0.88,0.482,1.27,0.889c0.389,0.406,0.719,0.939,0.99,1.6c0.271,0.66,0.406,1.465,0.406,2.412
			c0,1.354-0.263,2.522-0.787,3.504c-0.525,0.982-1.202,1.803-2.031,2.463c-0.83,0.66-1.777,1.151-2.844,1.473
			c-1.066,0.322-2.125,0.482-3.174,0.482c-1.625,0-3.09-0.279-4.393-0.838c-1.304-0.559-2.412-1.328-3.326-2.311
			c-0.914-0.981-1.608-2.133-2.082-3.453C0.236,110.509,0,109.104,0,107.614c0-3.961,1.092-7.389,3.275-10.283
			s5.171-5.298,8.963-7.211c3.791-1.912,8.209-3.326,13.254-4.24c5.044-0.914,10.443-1.371,16.199-1.371
			c2.742,0,5.416,0.025,8.023,0.076c2.606,0.051,4.984,0.127,7.135,0.229c2.149,0.102,4.003,0.221,5.561,0.355
			c1.557,0.136,2.691,0.288,3.402,0.457c0.677,0.17,1.219,0.415,1.625,0.736c0.406,0.322,0.711,0.686,0.914,1.092
			s0.338,0.838,0.406,1.295c0.067,0.457,0.102,0.923,0.102,1.396c0,0.373-0.051,0.805-0.152,1.295
			c-0.102,0.491-0.254,0.957-0.457,1.396c-0.203,0.44-0.457,0.813-0.762,1.117s-0.678,0.457-1.117,0.457
			c-0.271,0-0.551-0.118-0.838-0.355c-0.288-0.236-0.686-0.524-1.193-0.863c-0.508-0.338-1.193-0.728-2.057-1.168
			c-0.863-0.439-1.998-0.846-3.402-1.219c-1.405-0.372-3.132-0.711-5.18-1.016c-2.049-0.305-4.528-0.508-7.439-0.609v64.594
			c0,2.607-0.678,4.503-2.031,5.688C42.876,160.646,40.794,161.239,37.984,161.239z"/>
		<path fill="#14A697" d="M82.57,117.364c1.252-1.794,2.674-3.402,4.266-4.824c0.643-0.609,1.362-1.201,2.158-1.777
			c0.795-0.575,1.642-1.092,2.539-1.549c0.896-0.457,1.845-0.82,2.844-1.092c0.998-0.271,2.022-0.406,3.072-0.406
			c2.268,0,4.299,0.44,6.094,1.32c1.794,0.881,3.301,2.354,4.52,4.418c1.219,2.065,2.149,4.799,2.793,8.201
			c0.643,3.402,0.965,7.626,0.965,12.67c0,4.909-0.44,9.175-1.32,12.797c-0.881,3.623-2.031,6.703-3.453,9.242
			s-3.03,4.612-4.824,6.221c-1.795,1.607-3.605,2.869-5.434,3.783s-3.589,1.549-5.281,1.904c-1.693,0.355-3.148,0.55-4.367,0.584
			l-0.508-2.082c1.523-0.373,2.877-1.066,4.063-2.082c1.185-1.016,2.184-2.684,2.996-5.002s1.43-5.441,1.854-9.369
			c0.423-3.927,0.635-8.988,0.635-15.184c0-4.266-0.195-7.676-0.584-10.232c-0.39-2.556-0.897-4.502-1.523-5.84
			c-0.627-1.337-1.338-2.217-2.133-2.641c-0.796-0.423-1.6-0.635-2.412-0.635c-0.982,0-1.846,0.263-2.59,0.787
			c-0.745,0.525-1.396,1.126-1.955,1.803c-0.559,0.678-1.033,1.354-1.422,2.031c-0.39,0.678-0.72,1.186-0.99,1.523v33.922
			c0,0.44-0.068,0.974-0.203,1.6c-0.136,0.627-0.466,1.219-0.99,1.777c-0.525,0.559-1.304,1.033-2.336,1.422
			c-1.033,0.389-2.446,0.584-4.24,0.584c-1.795,0-3.217-0.212-4.266-0.635c-1.05-0.423-1.837-0.922-2.361-1.498
			c-0.525-0.575-0.855-1.168-0.99-1.777c-0.136-0.609-0.203-1.1-0.203-1.473V90.349c0-0.981-0.229-1.836-0.686-2.564
			c-0.457-0.728-1.228-1.092-2.311-1.092c-0.576,0-1.075,0.094-1.498,0.279c-0.424,0.187-0.872,0.466-1.346,0.838l-1.016-1.219
			c0.778-0.643,1.642-1.277,2.59-1.904c0.947-0.626,1.988-1.176,3.123-1.65c1.134-0.474,2.344-0.863,3.631-1.168
			c1.286-0.305,2.641-0.457,4.063-0.457c2.2,0,3.91,0.297,5.129,0.889c1.219,0.593,2.115,1.32,2.691,2.184
			c0.575,0.863,0.922,1.777,1.041,2.742c0.118,0.965,0.178,1.82,0.178,2.564V117.364z"/>
		<path fill="#14A697" d="M135.434,137.118c0,1.084,0.16,2.26,0.482,3.529c0.321,1.27,0.787,2.548,1.396,3.834
			c0.609,1.287,1.362,2.514,2.26,3.682c0.896,1.168,1.93,2.209,3.098,3.123s2.463,1.643,3.885,2.184
			c1.422,0.542,2.979,0.813,4.672,0.813c1.185,0,2.285-0.135,3.301-0.406c1.016-0.271,1.963-0.643,2.844-1.117
			c0.88-0.474,1.727-1.023,2.539-1.65c0.813-0.626,1.625-1.295,2.438-2.006l1.27,1.219c-0.779,1.05-1.777,2.201-2.996,3.453
			c-1.219,1.253-2.691,2.43-4.418,3.529c-1.727,1.101-3.741,2.015-6.043,2.742c-2.303,0.728-4.926,1.092-7.871,1.092
			s-5.814-0.533-8.607-1.6s-5.273-2.666-7.439-4.799c-2.167-2.133-3.902-4.79-5.205-7.973c-1.304-3.182-1.955-6.906-1.955-11.172
			c0-3.08,0.389-5.907,1.168-8.48c0.778-2.572,1.836-4.892,3.174-6.957c1.337-2.064,2.895-3.876,4.672-5.434
			c1.777-1.557,3.647-2.852,5.611-3.885c1.963-1.032,3.969-1.811,6.018-2.336c2.048-0.524,4.02-0.787,5.916-0.787
			c2.505,0,4.688,0.271,6.551,0.813c1.861,0.542,3.41,1.27,4.646,2.184c1.235,0.914,2.158,1.973,2.768,3.174
			c0.609,1.202,0.914,2.463,0.914,3.783c0,1.592-0.457,3.021-1.371,4.291s-2.133,2.379-3.656,3.326L135.434,137.118z
			 M145.641,126.81c0.439-0.271,0.804-0.533,1.092-0.787c0.287-0.254,0.516-0.559,0.686-0.914c0.169-0.355,0.296-0.795,0.381-1.32
			c0.084-0.524,0.127-1.176,0.127-1.955c0-0.846-0.094-1.785-0.279-2.818c-0.187-1.032-0.5-2.006-0.939-2.92
			c-0.44-0.914-0.999-1.676-1.676-2.285c-0.678-0.609-1.49-0.914-2.438-0.914c-1.219,0-2.26,0.364-3.123,1.092
			c-0.863,0.729-1.574,1.668-2.133,2.818c-0.559,1.151-0.999,2.463-1.32,3.936c-0.322,1.473-0.567,2.954-0.736,4.443
			c-0.17,1.49-0.271,2.92-0.305,4.291c-0.034,1.371-0.051,2.531-0.051,3.479L145.641,126.81z"/>
		<path fill="#14A697" d="M261.012,107.413c5.214-7.5,9.976-14.15,14.282-19.951s8.275-10.854,11.909-15.161
			c3.632-4.307,7.017-7.924,10.151-10.854c3.134-2.929,6.182-5.287,9.141-7.075c2.958-1.787,5.902-3.061,8.833-3.823
			c2.929-0.761,6.005-1.143,9.229-1.143c7.675,0,11.514,2.461,11.514,7.383c0,0.646-0.06,1.406-0.176,2.285
			c-0.118,0.879-0.338,1.729-0.659,2.549c-0.322,0.821-0.777,1.524-1.362,2.109c-0.587,0.586-1.318,0.879-2.197,0.879
			c-0.646,0-1.393-0.321-2.241-0.967c-0.85-0.644-1.832-1.362-2.944-2.153c-1.114-0.791-2.403-1.523-3.867-2.197
			c-1.466-0.673-3.106-1.011-4.922-1.011c-1.993,0-4.263,0.821-6.812,2.461c-2.549,1.641-5.304,3.867-8.262,6.68
			c-2.959,2.813-6.035,6.08-9.229,9.8c-3.194,3.722-6.432,7.662-9.712,11.821c8.789,20.039,16.537,37.413,23.247,52.119
			c6.709,14.708,12.832,26.881,18.369,36.519s10.648,16.801,15.337,21.489c4.687,4.688,9.404,7.031,14.15,7.031
			c0.819,0,1.64-0.118,2.461-0.352c0.819-0.234,1.552-0.498,2.197-0.791c0.761-0.294,1.522-0.674,2.285-1.143l1.846,3.428
			c-0.997,0.585-2.359,1.288-4.087,2.109c-1.729,0.82-3.779,1.596-6.152,2.329c-2.373,0.731-4.996,1.362-7.866,1.89
			c-2.872,0.527-5.948,0.791-9.229,0.791c-4.513,0-8.701-0.703-12.568-2.109s-7.633-3.678-11.294-6.812
			c-3.662-3.136-7.266-7.237-10.811-12.305c-3.546-5.069-7.237-11.264-11.074-18.589c-3.838-7.324-7.896-15.85-12.173-25.576
			c-4.278-9.726-8.936-20.859-13.975-33.398l-3.34,5.01v54.229c0,4.513-1.187,7.793-3.56,9.844s-5.992,3.076-10.854,3.076
			c-4.922,0-8.556-1.025-10.898-3.076c-2.344-2.051-3.516-5.331-3.516-9.844V69.093c0-1.288-0.147-2.314-0.439-3.076
			c-0.294-0.761-0.703-1.362-1.23-1.802s-1.158-0.732-1.89-0.879c-0.733-0.146-1.538-0.22-2.417-0.22
			c-1.29,0-2.887,0.206-4.79,0.615c-1.905,0.411-3.911,1.026-6.021,1.846c-2.109,0.821-4.234,1.832-6.372,3.032
			c-2.14,1.202-4.043,2.564-5.713,4.087c-1.67,1.524-3.032,3.223-4.087,5.098c-1.055,1.876-1.582,3.897-1.582,6.064
			c0,1.876,0.249,3.37,0.747,4.482c0.497,1.114,1.068,1.949,1.714,2.505c0.644,0.558,1.303,0.909,1.978,1.055
			c0.673,0.147,1.156,0.22,1.45,0.22c1.464,0,2.666-0.249,3.604-0.747c0.937-0.497,1.787-1.024,2.549-1.582
			c0.761-0.556,1.479-1.083,2.153-1.582c0.673-0.497,1.45-0.747,2.329-0.747c0.703,0,1.45,0.162,2.241,0.483
			c0.791,0.323,1.523,0.835,2.197,1.538c0.673,0.703,1.244,1.626,1.714,2.769c0.468,1.143,0.703,2.535,0.703,4.175
			c0,2.344-0.455,4.366-1.362,6.064c-0.909,1.7-2.081,3.12-3.516,4.263c-1.437,1.143-3.076,1.993-4.922,2.549
			c-1.846,0.558-3.678,0.835-5.493,0.835c-2.813,0-5.348-0.483-7.603-1.45c-2.256-0.967-4.175-2.299-5.757-3.999
			c-1.582-1.699-2.784-3.691-3.604-5.977c-0.821-2.285-1.23-4.716-1.23-7.295c0-4.043,0.732-7.748,2.197-11.118
			c1.464-3.369,3.472-6.401,6.021-9.097c2.549-2.694,5.537-5.054,8.965-7.075s7.133-3.705,11.118-5.054
			c3.984-1.347,8.144-2.358,12.48-3.032c4.335-0.673,8.671-1.011,13.008-1.011c4.804,0,8.539,0.455,11.206,1.362
			c2.666,0.909,4.628,2.008,5.889,3.296c1.259,1.29,2.006,2.637,2.241,4.043c0.233,1.406,0.352,2.579,0.352,3.516V107.413z"/>
		<path fill="#14A697" d="M357.299,155.856c0,0.44-0.076,0.974-0.229,1.6c-0.152,0.627-0.508,1.219-1.066,1.777
			s-1.363,1.033-2.412,1.422c-1.05,0.389-2.472,0.584-4.266,0.584c-1.795,0-3.199-0.212-4.215-0.635s-1.777-0.922-2.285-1.498
			c-0.508-0.575-0.821-1.168-0.939-1.777c-0.119-0.609-0.178-1.1-0.178-1.473v-39.203c0-0.981-0.229-1.836-0.686-2.564
			c-0.457-0.728-1.228-1.092-2.311-1.092c-0.576,0-1.066,0.102-1.473,0.305s-0.847,0.491-1.32,0.863l-1.066-1.27
			c0.778-0.643,1.65-1.277,2.615-1.904c0.965-0.626,2.006-1.176,3.123-1.65c1.117-0.474,2.318-0.863,3.605-1.168
			c1.286-0.305,2.641-0.457,4.063-0.457c2.2,0,3.91,0.297,5.129,0.889c1.219,0.593,2.115,1.32,2.691,2.184
			c0.575,0.863,0.922,1.786,1.041,2.768c0.118,0.982,0.178,1.846,0.178,2.59V155.856z M340.135,96.138
			c0-0.947,0.211-1.854,0.635-2.717c0.423-0.863,1.016-1.616,1.777-2.26c0.762-0.643,1.642-1.15,2.641-1.523
			c0.998-0.372,2.09-0.559,3.275-0.559c1.15,0,2.226,0.187,3.225,0.559c0.998,0.373,1.87,0.881,2.615,1.523
			c0.744,0.644,1.328,1.396,1.752,2.26c0.423,0.863,0.635,1.77,0.635,2.717c0,0.982-0.212,1.896-0.635,2.742
			c-0.424,0.847-1.008,1.583-1.752,2.209c-0.745,0.627-1.617,1.126-2.615,1.498c-0.999,0.373-2.074,0.559-3.225,0.559
			c-1.186,0-2.277-0.186-3.275-0.559c-0.999-0.372-1.879-0.871-2.641-1.498c-0.762-0.626-1.354-1.362-1.777-2.209
			C340.346,98.034,340.135,97.12,340.135,96.138z"/>
		<path fill="#14A697" d="M399.955,135.138c0-4.266-0.195-7.676-0.584-10.232c-0.39-2.556-0.906-4.502-1.549-5.84
			c-0.644-1.337-1.354-2.217-2.133-2.641c-0.779-0.423-1.574-0.635-2.387-0.635c-0.982,0-1.854,0.263-2.615,0.787
			c-0.762,0.525-1.422,1.126-1.98,1.803c-0.559,0.678-1.033,1.354-1.422,2.031c-0.39,0.678-0.72,1.186-0.99,1.523v33.922
			c0,0.44-0.068,0.974-0.203,1.6c-0.136,0.627-0.466,1.219-0.99,1.777c-0.525,0.559-1.304,1.033-2.336,1.422
			c-1.033,0.389-2.446,0.584-4.24,0.584c-1.795,0-3.208-0.212-4.24-0.635c-1.033-0.423-1.82-0.922-2.361-1.498
			c-0.542-0.575-0.881-1.168-1.016-1.777c-0.136-0.609-0.203-1.1-0.203-1.473v-39.203c0-0.981-0.229-1.836-0.686-2.564
			c-0.457-0.728-1.228-1.092-2.311-1.092c-0.576,0-1.066,0.102-1.473,0.305s-0.847,0.491-1.32,0.863l-1.066-1.27
			c0.778-0.643,1.65-1.277,2.615-1.904c0.965-0.626,2.006-1.176,3.123-1.65c1.117-0.474,2.318-0.863,3.605-1.168
			c1.286-0.305,2.641-0.457,4.063-0.457c2.2,0,3.91,0.364,5.129,1.092c1.219,0.729,2.115,1.6,2.691,2.615
			c0.575,1.016,0.922,2.074,1.041,3.174c0.118,1.101,0.178,2.023,0.178,2.768c1.252-1.794,2.674-3.402,4.266-4.824
			c0.643-0.609,1.362-1.201,2.158-1.777c0.795-0.575,1.642-1.092,2.539-1.549c0.896-0.457,1.845-0.82,2.844-1.092
			c0.998-0.271,2.022-0.406,3.072-0.406c2.302,0,4.342,0.44,6.119,1.32c1.777,0.881,3.275,2.354,4.494,4.418
			c1.219,2.065,2.149,4.799,2.793,8.201c0.643,3.402,0.965,7.626,0.965,12.67c0,4.909-0.44,9.175-1.32,12.797
			c-0.881,3.623-2.031,6.703-3.453,9.242s-3.03,4.612-4.824,6.221c-1.795,1.607-3.605,2.869-5.434,3.783s-3.58,1.549-5.256,1.904
			s-3.123,0.55-4.342,0.584l-0.559-2.082c1.016-0.237,1.955-0.609,2.818-1.117s1.65-1.253,2.361-2.234
			c0.711-0.982,1.337-2.227,1.879-3.732c0.541-1.506,1.007-3.394,1.396-5.662c0.389-2.268,0.677-4.951,0.863-8.049
			C399.861,142.882,399.955,139.269,399.955,135.138z"/>
		<path fill="#14A697" d="M423.873,128.485c0-3.453,0.601-6.475,1.803-9.064c1.201-2.59,2.818-4.756,4.85-6.5
			c2.031-1.743,4.384-3.047,7.059-3.91c2.674-0.863,5.484-1.295,8.43-1.295s5.738,0.39,8.379,1.168
			c2.641,0.779,4.977,1.98,7.008,3.605c0.643-0.981,1.168-2.014,1.574-3.098c0.406-1.083,0.609-2.166,0.609-3.25
			c0-1.422-0.381-2.556-1.143-3.402c-0.762-0.846-1.735-1.27-2.92-1.27v-1.473c0.744-0.236,1.404-0.448,1.98-0.635
			c0.575-0.186,1.1-0.33,1.574-0.432c0.474-0.102,0.947-0.178,1.422-0.229c0.474-0.051,0.998-0.076,1.574-0.076
			c1.591,0,2.81,0.491,3.656,1.473c0.846,0.982,1.27,2.336,1.27,4.063c0,1.016-0.237,2.023-0.711,3.021
			c-0.475,0.999-1.066,1.955-1.777,2.869s-1.498,1.777-2.361,2.59s-1.685,1.523-2.463,2.133c1.422,1.625,2.521,3.521,3.301,5.688
			c0.778,2.167,1.168,4.639,1.168,7.414c0,3.487-0.602,6.568-1.803,9.242c-1.202,2.675-2.818,4.926-4.85,6.754
			s-4.385,3.208-7.059,4.139c-2.675,0.932-5.484,1.396-8.43,1.396c-1.727,0-3.42-0.152-5.078-0.457
			c-1.659-0.305-3.217-0.744-4.672-1.32c-0.542,0.406-1.008,0.914-1.396,1.523c-0.39,0.609-0.584,1.287-0.584,2.031
			c0,1.253,0.541,2.184,1.625,2.793c1.083,0.609,2.521,1.05,4.316,1.32c1.794,0.271,3.825,0.44,6.094,0.508
			c2.268,0.068,4.596,0.178,6.982,0.33s4.714,0.44,6.982,0.863c2.268,0.424,4.299,1.117,6.094,2.082
			c1.794,0.965,3.232,2.276,4.316,3.936c1.083,1.658,1.625,3.809,1.625,6.449c0,1.93-0.406,3.664-1.219,5.205
			c-0.813,1.54-1.904,2.895-3.275,4.063s-2.963,2.166-4.773,2.996c-1.812,0.829-3.725,1.506-5.738,2.031
			c-2.015,0.524-4.063,0.905-6.145,1.143c-2.082,0.236-4.071,0.355-5.967,0.355c-3.453,0-6.56-0.178-9.318-0.533
			c-2.76-0.355-5.104-0.906-7.033-1.65c-1.93-0.745-3.42-1.71-4.469-2.895c-1.05-1.186-1.574-2.607-1.574-4.266
			c0-1.186,0.271-2.277,0.813-3.275c0.541-0.999,1.261-1.913,2.158-2.742c0.896-0.83,1.904-1.574,3.021-2.234
			s2.251-1.278,3.402-1.854c-1.693-0.711-3.106-1.786-4.24-3.225c-1.135-1.439-1.701-3.343-1.701-5.713
			c0-1.252,0.22-2.412,0.66-3.479c0.439-1.066,1.007-2.048,1.701-2.945c0.693-0.896,1.455-1.709,2.285-2.438
			c0.829-0.728,1.633-1.346,2.412-1.854c-1.389-0.813-2.666-1.803-3.834-2.971s-2.167-2.488-2.996-3.961
			c-0.83-1.473-1.473-3.105-1.93-4.9C424.102,132.531,423.873,130.585,423.873,128.485z M460.588,173.528
			c0-1.084-0.424-1.973-1.27-2.666c-0.847-0.694-1.955-1.253-3.326-1.676c-1.371-0.424-2.929-0.745-4.672-0.965
			c-1.744-0.221-3.513-0.39-5.307-0.508c-1.795-0.119-3.538-0.229-5.23-0.33c-1.693-0.102-3.166-0.237-4.418-0.406
			c-0.711,0.508-1.396,1.058-2.057,1.65c-0.66,0.592-1.236,1.219-1.727,1.879c-0.491,0.66-0.889,1.354-1.193,2.082
			c-0.305,0.728-0.457,1.464-0.457,2.209c0,1.286,0.372,2.361,1.117,3.225c0.744,0.863,1.752,1.549,3.021,2.057
			s2.742,0.863,4.418,1.066s3.444,0.305,5.307,0.305c2.471,0,4.688-0.212,6.652-0.635c1.963-0.424,3.622-0.999,4.977-1.727
			c1.354-0.729,2.387-1.566,3.098-2.514C460.232,175.627,460.588,174.611,460.588,173.528z M452.869,128.079
			c0-1.963-0.102-3.876-0.305-5.738c-0.203-1.861-0.559-3.521-1.066-4.977c-0.508-1.455-1.202-2.632-2.082-3.529
			c-0.881-0.896-2.015-1.346-3.402-1.346c-1.389,0-2.522,0.466-3.402,1.396c-0.881,0.932-1.574,2.15-2.082,3.656
			c-0.508,1.507-0.863,3.217-1.066,5.129c-0.203,1.913-0.305,3.852-0.305,5.814c0,1.998,0.102,3.961,0.305,5.891
			s0.559,3.656,1.066,5.18s1.201,2.751,2.082,3.682c0.88,0.932,2.014,1.396,3.402,1.396c1.388,0,2.521-0.49,3.402-1.473
			c0.88-0.981,1.574-2.26,2.082-3.834s0.863-3.343,1.066-5.307C452.768,132.058,452.869,130.077,452.869,128.079z"/>
		<path fill="#14A697" d="M474.807,109.036c2.099-1.422,3.546-2.937,4.342-4.545c0.795-1.607,1.193-3.14,1.193-4.596
			c0-1.557-0.432-2.937-1.295-4.139c-0.863-1.201-1.82-2.242-2.869-3.123c-0.508-0.508-0.762-1.066-0.762-1.676
			c0-0.711,0.236-1.438,0.711-2.184c0.474-0.744,1.1-1.438,1.879-2.082c0.778-0.643,1.684-1.168,2.717-1.574
			c1.032-0.406,2.107-0.609,3.225-0.609c1.049,0,1.946,0.271,2.691,0.813c0.744,0.542,1.337,1.202,1.777,1.98
			c0.439,0.779,0.762,1.6,0.965,2.463s0.305,1.634,0.305,2.311c0,1.998-0.355,3.894-1.066,5.688
			c-0.711,1.795-1.676,3.487-2.895,5.078c-1.219,1.592-2.633,3.056-4.24,4.393c-1.608,1.338-3.31,2.531-5.104,3.58L474.807,109.036z
			"/>
		<path fill="#14A697" d="M515.432,111.778c-0.779,0-1.516,0.102-2.209,0.305c-0.694,0.203-1.313,0.533-1.854,0.99
			c-0.542,0.457-0.965,1.033-1.27,1.727c-0.305,0.694-0.457,1.516-0.457,2.463c0,1.32,0.482,2.633,1.447,3.936
			c0.965,1.304,2.166,2.658,3.605,4.063c1.438,1.405,2.996,2.861,4.672,4.367c1.676,1.507,3.232,3.098,4.672,4.773
			c1.438,1.676,2.641,3.462,3.605,5.357c0.965,1.896,1.447,3.928,1.447,6.094c0,2.438-0.415,4.604-1.244,6.5
			c-0.83,1.896-2.015,3.504-3.555,4.824c-1.541,1.32-3.402,2.328-5.586,3.021s-4.613,1.041-7.287,1.041
			c-2.336,0-4.452-0.33-6.348-0.99c-1.896-0.66-3.58-1.473-5.053-2.438s-2.734-1.988-3.783-3.072
			c-1.05-1.083-1.862-2.064-2.438-2.945l1.777-1.27c0.439,0.508,0.998,1.059,1.676,1.65c0.677,0.593,1.43,1.143,2.26,1.65
			c0.829,0.508,1.718,0.923,2.666,1.244c0.947,0.322,1.912,0.482,2.895,0.482c2.438,0,4.435-0.584,5.992-1.752
			c1.557-1.168,2.336-2.902,2.336-5.205c0-1.286-0.424-2.615-1.27-3.986c-0.847-1.371-1.913-2.784-3.199-4.24
			c-1.287-1.455-2.675-2.962-4.164-4.52c-1.49-1.557-2.878-3.165-4.164-4.824c-1.287-1.658-2.354-3.368-3.199-5.129
			c-0.847-1.76-1.27-3.588-1.27-5.484c0-2.133,0.432-3.994,1.295-5.586c0.863-1.591,2.014-2.911,3.453-3.961
			c1.438-1.049,3.08-1.836,4.926-2.361c1.845-0.524,3.749-0.787,5.713-0.787c2.268,0,4.333,0.203,6.195,0.609
			c1.861,0.406,3.461,1.024,4.799,1.854c1.337,0.83,2.369,1.871,3.098,3.123c0.728,1.253,1.092,2.709,1.092,4.367
			c0,1.287-0.424,2.404-1.27,3.352c-0.847,0.948-2.031,1.422-3.555,1.422c-1.456,0-2.564-0.313-3.326-0.939
			c-0.762-0.626-1.143-1.48-1.143-2.564c0-0.711,0.178-1.27,0.533-1.676s0.753-0.736,1.193-0.99c0.439-0.254,0.838-0.474,1.193-0.66
			c0.355-0.186,0.533-0.432,0.533-0.736c0-0.947-0.508-1.701-1.523-2.26S517.022,111.778,515.432,111.778z"/>
		<path fill="#14A697" d="M199.952,213.676c-0.914,0-1.98,0.187-3.199,0.559c-1.219,0.373-2.463,1.075-3.732,2.107
			c-1.27,1.033-2.514,2.48-3.732,4.342c-1.219,1.862-2.311,4.274-3.275,7.236c-0.965,2.963-1.744,6.56-2.336,10.791
			c-0.593,4.232-0.889,9.226-0.889,14.98c0,5.484,0.296,10.241,0.889,14.27c0.592,4.029,1.388,7.457,2.387,10.283
			c0.998,2.827,2.141,5.138,3.428,6.932c1.286,1.794,2.641,3.19,4.063,4.189c1.422,0.998,2.844,1.684,4.266,2.057
			c1.422,0.372,2.759,0.559,4.012,0.559c1.32,0,2.657-0.17,4.012-0.508c1.354-0.339,2.683-0.83,3.986-1.473
			c1.303-0.644,2.556-1.422,3.758-2.336c1.201-0.914,2.311-1.964,3.326-3.148l2.285,2.285c-1.016,1.252-2.234,2.53-3.656,3.834
			c-1.422,1.303-3.072,2.488-4.951,3.555s-3.986,1.938-6.322,2.615c-2.336,0.677-4.926,1.016-7.77,1.016
			c-4.436,0-8.557-0.847-12.365-2.539c-3.809-1.693-7.127-4.325-9.953-7.896c-2.827-3.571-5.045-8.15-6.652-13.736
			c-1.608-5.586-2.412-12.271-2.412-20.059c0-7.313,0.846-13.728,2.539-19.246c1.692-5.518,3.994-10.131,6.906-13.838
			c2.911-3.707,6.33-6.5,10.258-8.379c3.927-1.879,8.107-2.818,12.543-2.818c2.945,0,5.628,0.279,8.049,0.838
			c2.42,0.559,4.511,1.371,6.271,2.438c1.76,1.066,3.123,2.387,4.088,3.961s1.447,3.36,1.447,5.357c0,0.914-0.152,1.871-0.457,2.869
			c-0.305,0.999-0.771,1.913-1.396,2.742c-0.627,0.83-1.396,1.507-2.311,2.031c-0.914,0.525-1.98,0.787-3.199,0.787
			c-1.084,0-1.922-0.236-2.514-0.711c-0.593-0.474-1.033-1.1-1.32-1.879c-0.288-0.778-0.475-1.667-0.559-2.666
			c-0.085-0.998-0.145-2.022-0.178-3.072c-0.034-1.049-0.11-2.073-0.229-3.072c-0.119-0.998-0.355-1.887-0.711-2.666
			c-0.355-0.778-0.872-1.404-1.549-1.879C202.118,213.913,201.171,213.676,199.952,213.676z"/>
		<path fill="#14A697" d="M268.354,276.391c0,0.305,0.017,0.635,0.051,0.99c0.033,0.355,0.118,0.694,0.254,1.016
			c0.135,0.322,0.338,0.584,0.609,0.787c0.271,0.203,0.66,0.305,1.168,0.305c0.643,0,1.219-0.229,1.727-0.686
			s0.981-0.922,1.422-1.396l1.219,1.066c-0.508,0.711-1.143,1.498-1.904,2.361s-1.685,1.685-2.768,2.463
			c-1.084,0.779-2.319,1.431-3.707,1.955c-1.389,0.524-2.963,0.787-4.723,0.787c-1.49,0-2.785-0.195-3.885-0.584
			c-1.101-0.389-2.031-0.914-2.793-1.574s-1.329-1.438-1.701-2.336c-0.373-0.896-0.559-1.854-0.559-2.869v-2.285
			c-1.693,1.828-3.471,3.437-5.332,4.824c-0.813,0.609-1.676,1.202-2.59,1.777c-0.914,0.576-1.862,1.092-2.844,1.549
			c-0.982,0.457-1.998,0.82-3.047,1.092c-1.05,0.271-2.1,0.406-3.148,0.406c-2.031,0-3.767-0.364-5.205-1.092
			c-1.439-0.728-2.599-1.684-3.479-2.869c-0.881-1.185-1.523-2.521-1.93-4.012c-0.406-1.489-0.609-2.979-0.609-4.469v-31.434
			c0-0.305-0.018-0.635-0.051-0.99c-0.034-0.355-0.119-0.693-0.254-1.016c-0.136-0.321-0.339-0.584-0.609-0.787
			c-0.271-0.203-0.66-0.305-1.168-0.305c-0.609,0-1.177,0.229-1.701,0.686c-0.525,0.457-0.99,0.923-1.396,1.396l-1.27-1.066
			c0.508-0.711,1.143-1.498,1.904-2.361s1.684-1.684,2.768-2.463c1.083-0.778,2.327-1.43,3.732-1.955
			c1.404-0.524,2.971-0.787,4.697-0.787c1.489,0,2.793,0.195,3.91,0.584c1.117,0.39,2.048,0.914,2.793,1.574
			c0.744,0.66,1.303,1.439,1.676,2.336c0.372,0.897,0.559,1.854,0.559,2.869v33.922c0,0.475,0.076,0.957,0.229,1.447
			c0.152,0.491,0.372,0.939,0.66,1.346c0.287,0.406,0.651,0.736,1.092,0.99c0.439,0.254,0.965,0.381,1.574,0.381
			c0.981,0,1.963-0.254,2.945-0.762c0.981-0.508,1.879-1.108,2.691-1.803c0.813-0.693,1.515-1.379,2.107-2.057
			c0.592-0.677,1.023-1.185,1.295-1.523v-29.656c0-0.305-0.018-0.635-0.051-0.99c-0.034-0.355-0.119-0.693-0.254-1.016
			c-0.136-0.321-0.339-0.584-0.609-0.787c-0.271-0.203-0.66-0.305-1.168-0.305c-0.609,0-1.177,0.229-1.701,0.686
			c-0.525,0.457-0.99,0.923-1.396,1.396l-1.27-1.066c0.508-0.711,1.143-1.498,1.904-2.361s1.684-1.684,2.768-2.463
			c1.083-0.778,2.327-1.43,3.732-1.955c1.404-0.524,2.971-0.787,4.697-0.787c1.489,0,2.793,0.195,3.91,0.584
			c1.117,0.39,2.048,0.914,2.793,1.574c0.744,0.66,1.303,1.439,1.676,2.336c0.372,0.897,0.559,1.854,0.559,2.869V276.391z"/>
		<path fill="#14A697" d="M282.319,241.453c0-0.981-0.229-1.836-0.686-2.564c-0.457-0.728-1.228-1.092-2.311-1.092
			c-0.576,0-1.066,0.102-1.473,0.305s-0.847,0.491-1.32,0.863l-1.066-1.27c0.778-0.643,1.65-1.277,2.615-1.904
			c0.965-0.626,2.006-1.176,3.123-1.65c1.117-0.474,2.318-0.863,3.605-1.168c1.286-0.305,2.641-0.457,4.063-0.457
			c1.523,0,2.826,0.237,3.91,0.711c1.083,0.475,1.988,1.041,2.717,1.701c0.728,0.66,1.277,1.354,1.65,2.082
			c0.372,0.729,0.592,1.346,0.66,1.854c0.677-0.947,1.48-1.811,2.412-2.59c0.931-0.778,1.946-1.447,3.047-2.006
			c1.1-0.559,2.268-0.99,3.504-1.295c1.235-0.305,2.514-0.457,3.834-0.457c2.708,0,5.162,0.559,7.363,1.676
			c2.2,1.117,4.088,2.776,5.662,4.977c1.574,2.201,2.784,4.926,3.631,8.176c0.846,3.25,1.27,7.008,1.27,11.273
			c0,4.943-0.517,9.149-1.549,12.619c-1.033,3.471-2.387,6.306-4.063,8.506c-1.676,2.201-3.589,3.801-5.738,4.799
			c-2.15,0.998-4.342,1.498-6.576,1.498c-1.862,0-3.496-0.187-4.9-0.559c-1.405-0.372-2.615-0.829-3.631-1.371
			c-1.016-0.541-1.862-1.092-2.539-1.65c-0.678-0.559-1.219-1.023-1.625-1.396v24.781c0,0.439-0.068,0.965-0.203,1.574
			c-0.136,0.609-0.466,1.193-0.99,1.752c-0.525,0.559-1.304,1.041-2.336,1.447c-1.033,0.406-2.446,0.609-4.24,0.609
			c-1.795,0-3.208-0.212-4.24-0.635c-1.033-0.424-1.82-0.932-2.361-1.523c-0.542-0.593-0.881-1.186-1.016-1.777
			c-0.136-0.593-0.203-1.075-0.203-1.447V241.453z M297.909,273.801c0,0.271,0.118,0.745,0.355,1.422
			c0.236,0.678,0.609,1.371,1.117,2.082s1.159,1.346,1.955,1.904c0.795,0.559,1.769,0.838,2.92,0.838
			c1.489,0,2.759-0.566,3.809-1.701c1.049-1.134,1.912-2.674,2.59-4.621c0.677-1.946,1.168-4.215,1.473-6.805
			s0.457-5.357,0.457-8.303c0-3.622-0.195-6.686-0.584-9.191c-0.39-2.505-0.957-4.527-1.701-6.068
			c-0.745-1.54-1.634-2.657-2.666-3.352c-1.033-0.693-2.192-1.041-3.479-1.041c-0.745,0-1.49,0.212-2.234,0.635
			c-0.745,0.424-1.414,0.948-2.006,1.574c-0.593,0.627-1.075,1.329-1.447,2.107c-0.373,0.779-0.559,1.523-0.559,2.234V273.801z"/>
		<path fill="#14A697" d="M354.479,236.578c-0.779,0-1.516,0.102-2.209,0.305c-0.694,0.203-1.313,0.533-1.854,0.99
			c-0.542,0.457-0.965,1.033-1.27,1.727c-0.305,0.694-0.457,1.516-0.457,2.463c0,1.32,0.482,2.633,1.447,3.936
			c0.965,1.304,2.166,2.658,3.605,4.063c1.438,1.405,2.996,2.861,4.672,4.367c1.676,1.507,3.232,3.098,4.672,4.773
			c1.438,1.676,2.641,3.462,3.605,5.357c0.965,1.896,1.447,3.928,1.447,6.094c0,2.438-0.415,4.604-1.244,6.5
			c-0.83,1.896-2.015,3.504-3.555,4.824c-1.541,1.32-3.402,2.328-5.586,3.021s-4.613,1.041-7.287,1.041
			c-2.336,0-4.452-0.33-6.348-0.99c-1.896-0.66-3.58-1.473-5.053-2.438s-2.734-1.988-3.783-3.072
			c-1.05-1.083-1.862-2.064-2.438-2.945l1.777-1.27c0.439,0.508,0.998,1.059,1.676,1.65c0.677,0.593,1.43,1.143,2.26,1.65
			c0.829,0.508,1.718,0.923,2.666,1.244c0.947,0.322,1.912,0.482,2.895,0.482c2.438,0,4.435-0.584,5.992-1.752
			c1.557-1.168,2.336-2.902,2.336-5.205c0-1.286-0.424-2.615-1.27-3.986c-0.847-1.371-1.913-2.784-3.199-4.24
			c-1.287-1.455-2.675-2.962-4.164-4.52c-1.49-1.557-2.878-3.165-4.164-4.824c-1.287-1.658-2.354-3.368-3.199-5.129
			c-0.847-1.76-1.27-3.588-1.27-5.484c0-2.133,0.432-3.994,1.295-5.586c0.863-1.591,2.014-2.911,3.453-3.961
			c1.438-1.049,3.08-1.836,4.926-2.361c1.845-0.524,3.749-0.787,5.713-0.787c2.268,0,4.333,0.203,6.195,0.609
			c1.861,0.406,3.461,1.024,4.799,1.854c1.337,0.83,2.369,1.871,3.098,3.123c0.728,1.253,1.092,2.709,1.092,4.367
			c0,1.287-0.424,2.404-1.27,3.352c-0.847,0.948-2.031,1.422-3.555,1.422c-1.456,0-2.564-0.313-3.326-0.939
			c-0.762-0.626-1.143-1.48-1.143-2.564c0-0.711,0.178-1.27,0.533-1.676s0.753-0.736,1.193-0.99c0.439-0.254,0.838-0.474,1.193-0.66
			c0.355-0.186,0.533-0.432,0.533-0.736c0-0.947-0.508-1.701-1.523-2.26S356.07,236.578,354.479,236.578z"/>
	</g>
	<g>
		<path fill-rule="evenodd" clip-rule="evenodd" fill="#FFDC73" d="M128.253,286.046c-4.45,2.84-9.341,4.316-14.613,4.505
			c-17.543,0.623-33.472-13.949-34.053-31.228c-0.279-8.343,2.72-15.611,8.153-21.739c8.24-9.292,18.962-13.562,31.192-14.076
			c3.865-0.162,7.761,0.43,11.69,0.591c-2.557-0.401-5.101-0.945-7.671-1.181c-13.189-1.214-24.866,2.643-35.047,10.958
			c-3.232,2.64-5.533,6.17-7.563,9.835c-0.293,0.53-0.857,1.155-1.396,1.271c-10.496,2.259-20.915,2.137-31.092-1.563
			c-7.579-2.754-12.765-7.972-15.229-15.747c-0.041-0.131-0.042-0.274-0.104-0.706c0.383,0.391,0.626,0.578,0.795,0.818
			c2.34,3.337,5.688,4.84,9.611,5.203c5.568,0.514,10.959-0.63,16.133-2.439c10.84-3.791,21.579-7.874,32.359-11.838
			c6.371-2.341,12.599-5.113,19.34-6.328c7.447-1.34,14.729-1.122,21.644,2.327c6.382,3.185,10.863,8.207,13.86,14.618
			c0.309,0.658,0.648,1.303,1.04,2.086c-0.61,0.148-1.16,0.302-1.718,0.413c-9.707,1.944-19,5.014-27.475,10.246
			c-7.18,4.434-13.4,9.841-17.28,17.531c-1.381,2.735-2.235,5.622-2.421,8.708c-0.346,5.804,4.006,12.252,11.707,11.176
			c0.461-0.064,0.93-0.078,1.629-0.136c-5.813,2.56-12.445-0.73-14.379-6.983c-1.437-4.654-0.467-9.113,1.398-13.433
			c3.154-7.311,8.416-12.875,14.732-17.537c7.174-5.296,15.281-8.442,23.934-10.321c0.377-0.082,0.75-0.189,1.121-0.292
			c0.033-0.01,0.047-0.082,0.119-0.219c-5.102-0.174-10.081,0.37-15.003,1.484c-6.989,1.584-13.538,4.209-19.355,8.459
			c-6.196,4.529-10.687,10.28-12.45,17.903c-2.113,9.126,1.084,16.814,9.137,21.73c7.97,4.866,16.766,6.278,25.941,5.969
			C127.38,286.099,127.816,286.068,128.253,286.046z"/>
	</g>
	<g>
		<path fill-rule="evenodd" clip-rule="evenodd" fill="#FFDC73" d="M407.755,286.046c4.45,2.84,9.341,4.316,14.613,4.505
			c17.543,0.623,33.472-13.949,34.053-31.228c0.279-8.343-2.72-15.611-8.153-21.739c-8.24-9.292-18.962-13.562-31.192-14.076
			c-3.865-0.162-7.761,0.43-11.69,0.591c2.557-0.401,5.101-0.945,7.671-1.181c13.189-1.214,24.866,2.643,35.047,10.958
			c3.232,2.64,5.533,6.17,7.563,9.835c0.293,0.53,0.857,1.155,1.396,1.271c10.496,2.259,20.915,2.137,31.092-1.563
			c7.579-2.754,12.765-7.972,15.229-15.747c0.041-0.131,0.042-0.274,0.104-0.706c-0.383,0.391-0.626,0.578-0.795,0.818
			c-2.34,3.337-5.688,4.84-9.611,5.203c-5.568,0.514-10.959-0.63-16.133-2.439c-10.84-3.791-21.579-7.874-32.359-11.838
			c-6.371-2.341-12.599-5.113-19.34-6.328c-7.447-1.34-14.729-1.122-21.644,2.327c-6.382,3.185-10.863,8.207-13.86,14.618
			c-0.309,0.658-0.648,1.303-1.04,2.086c0.61,0.148,1.16,0.302,1.718,0.413c9.707,1.944,19,5.014,27.475,10.246
			c7.18,4.434,13.4,9.841,17.28,17.531c1.381,2.735,2.235,5.622,2.421,8.708c0.346,5.804-4.006,12.252-11.707,11.176
			c-0.461-0.064-0.93-0.078-1.629-0.136c5.813,2.56,12.445-0.73,14.379-6.983c1.437-4.654,0.467-9.113-1.398-13.433
			c-3.154-7.311-8.416-12.875-14.732-17.537c-7.174-5.296-15.281-8.442-23.934-10.321c-0.377-0.082-0.75-0.189-1.121-0.292
			c-0.033-0.01-0.047-0.082-0.119-0.219c5.102-0.174,10.081,0.37,15.003,1.484c6.989,1.584,13.538,4.209,19.355,8.459
			c6.196,4.529,10.687,10.28,12.45,17.903c2.113,9.126-1.084,16.814-9.137,21.73c-7.97,4.866-16.766,6.278-25.941,5.969
			C408.628,286.099,408.191,286.068,407.755,286.046z"/>
	</g>
	<g>
		<path fill-rule="evenodd" clip-rule="evenodd" fill="#F2C12E" d="M203.198,30.666c3.905,3.428,11.267,0.05,12.915-6.029
			c-0.488-0.045-0.969-0.072-1.442-0.139c-1.592-0.224-2.595-1.152-2.892-2.73c-0.109-0.578-0.186-1.183-0.14-1.764
			c0.203-2.547-0.255-4.82-2.419-6.728c1.209,0.185,2.42,0.368,3.734,0.569c-2.412-4.809-1.403-9.34,1.339-13.846
			c4.092,3.131,6.575,6.926,6.242,12.277c1.152-0.617,2.163-1.16,3.174-1.703c-1.531,2.508-0.982,4.844,0.027,7.242
			c1.253,2.975,0.835,3.931-2.451,5.946c2.337,2.335,4.769,4.505,8.241,4.263c2.282-0.16,4.78-0.537,5.791-3.262
			c-3.083-1.352-3.324-1.752-2.941-5.059c0.206-1.777-0.198-3.328-1.464-4.82c0.846,0.238,1.69,0.478,2.729,0.77
			c-1.386-3.936-0.367-7.325,2.255-10.516c2.963,2.99,4.81,6.238,3.953,10.584c0.979-0.346,1.915-0.678,2.85-1.008
			c-1.342,1.89-1.179,3.744-0.481,5.715c0.766,2.164,0.213,3.08-2.452,4.297c1.669,2.867,4.163,4.125,7.396,4.229
			c3.678,0.117,6.518-1.164,8.228-4.565c-3.219-1.638-3.677-2.891-2.303-6.204c1.132-2.728,1.09-3.865-0.43-6.973
			c1.321,0.711,2.35,1.266,3.481,1.875c-0.537-5.209,1.89-8.94,5.987-12.287c-0.109,0.855-0.154,1.368-0.242,1.873
			c-1.465,8.357-2.99,16.704-4.354,25.077c-0.249,1.532,0.114,3.175,0.268,4.76c0.255,2.643,0.512,5.288,0.876,7.917
			c0.283,2.043,0.73,4.063,1.123,6.191c-10.664-1.227-20.803,0.414-30.916,2.102c-9.649,1.609-19.286,3.365-28.658,6.238
			c-4.464,1.369-8.828,3.061-13.237,4.605c-0.456-2.473-0.972-5.266-1.486-8.059c-0.286-1.553-0.581-3.104-0.855-4.658
			c-0.085-0.484-0.313-1.061-0.145-1.449c0.759-1.746-0.218-3.055-1.006-4.382c-4.305-7.254-8.644-14.489-12.969-21.731
			c-0.272-0.456-0.534-0.919-0.664-1.508c4.697,1.369,8.256,3.982,9.649,9.014c0.855-1.01,1.608-1.899,2.363-2.789
			c-0.657,3.101,0.972,5.117,2.86,7.103c1.825,1.916,1.665,3.446-0.45,6.015c2.537,2.359,5.453,2.738,8.609,1.629
			c3.157-1.109,5.283-3.256,6.349-6.537c-3.301-0.105-3.738-0.525-4.017-3.711c-0.158-1.795-0.684-3.383-2.403-4.543
			c0.882-0.045,1.763-0.09,2.444-0.125c-0.344-1.861-0.976-3.752-0.96-5.637c0.016-1.859,0.688-3.711,1.118-5.796
			c3.797,2.205,6.023,4.925,6.097,9.21c0.835-0.648,1.567-1.218,2.3-1.787c-0.822,2.178-0.283,4.008,0.768,5.847
			C205.715,27.64,205.389,28.645,203.198,30.666z"/>
	</g>
</g>
</svg>
